<mxfile host="app.diagrams.net" modified="2021-07-03T05:31:10.672Z" agent="5.0 (Windows NT 10.0; Win64; x64) AppleWebKit/537.36 (KHTML, like Gecko) Chrome/91.0.4472.124 Safari/537.36" etag="sijtMSYrJnXKOZ5j9UtL" version="14.8.1" type="github">
  <diagram id="C5RBs43oDa-KdzZeNtuy" name="Page-1">
    <mxGraphModel dx="1209" dy="594" grid="1" gridSize="10" guides="1" tooltips="1" connect="1" arrows="1" fold="1" page="1" pageScale="1" pageWidth="827" pageHeight="1169" math="0" shadow="0">
      <root>
        <mxCell id="WIyWlLk6GJQsqaUBKTNV-0" />
        <mxCell id="WIyWlLk6GJQsqaUBKTNV-1" parent="WIyWlLk6GJQsqaUBKTNV-0" />
        <mxCell id="fitZuFPc6MIC0ft5o5-M-1" value="&lt;font style=&quot;font-size: 14px&quot;&gt;USUARIO&lt;/font&gt;" style="rounded=0;whiteSpace=wrap;html=1;fillColor=#d5e8d4;strokeColor=#82b366;" vertex="1" parent="WIyWlLk6GJQsqaUBKTNV-1">
          <mxGeometry x="630" y="520" width="120" height="60" as="geometry" />
        </mxCell>
        <mxCell id="fitZuFPc6MIC0ft5o5-M-3" value="&lt;span style=&quot;font-size: 14px&quot;&gt;ENVIO&lt;/span&gt;" style="rounded=0;whiteSpace=wrap;html=1;fillColor=#d5e8d4;strokeColor=#82b366;" vertex="1" parent="WIyWlLk6GJQsqaUBKTNV-1">
          <mxGeometry x="354" y="520" width="120" height="60" as="geometry" />
        </mxCell>
        <mxCell id="fitZuFPc6MIC0ft5o5-M-4" value="&lt;span style=&quot;font-size: 14px&quot;&gt;VENDEDORA&lt;/span&gt;" style="rounded=0;whiteSpace=wrap;html=1;fillColor=#d5e8d4;strokeColor=#82b366;" vertex="1" parent="WIyWlLk6GJQsqaUBKTNV-1">
          <mxGeometry x="50" y="170" width="130" height="60" as="geometry" />
        </mxCell>
        <mxCell id="fitZuFPc6MIC0ft5o5-M-6" value="&lt;span style=&quot;font-size: 14px&quot;&gt;PRODUTO&lt;/span&gt;" style="rounded=0;whiteSpace=wrap;html=1;fillColor=#d5e8d4;strokeColor=#82b366;" vertex="1" parent="WIyWlLk6GJQsqaUBKTNV-1">
          <mxGeometry x="354" y="170" width="120" height="60" as="geometry" />
        </mxCell>
        <mxCell id="fitZuFPc6MIC0ft5o5-M-10" value="&lt;br&gt;es mandado&amp;nbsp;&lt;br&gt;en" style="rhombus;whiteSpace=wrap;html=1;fillColor=#d5e8d4;strokeColor=#82b366;" vertex="1" parent="WIyWlLk6GJQsqaUBKTNV-1">
          <mxGeometry x="374" y="310" width="80" height="80" as="geometry" />
        </mxCell>
        <mxCell id="fitZuFPc6MIC0ft5o5-M-11" value="recibe" style="rhombus;whiteSpace=wrap;html=1;fillColor=#d5e8d4;strokeColor=#82b366;" vertex="1" parent="WIyWlLk6GJQsqaUBKTNV-1">
          <mxGeometry x="510" y="510" width="80" height="80" as="geometry" />
        </mxCell>
        <mxCell id="fitZuFPc6MIC0ft5o5-M-12" value="&lt;font style=&quot;font-size: 14px&quot;&gt;PAGO&lt;/font&gt;" style="rounded=0;whiteSpace=wrap;html=1;fillColor=#d5e8d4;strokeColor=#82b366;" vertex="1" parent="WIyWlLk6GJQsqaUBKTNV-1">
          <mxGeometry x="640" y="200" width="120" height="60" as="geometry" />
        </mxCell>
        <mxCell id="fitZuFPc6MIC0ft5o5-M-13" value="hace" style="rhombus;whiteSpace=wrap;html=1;fillColor=#d5e8d4;strokeColor=#82b366;" vertex="1" parent="WIyWlLk6GJQsqaUBKTNV-1">
          <mxGeometry x="660" y="390" width="80" height="80" as="geometry" />
        </mxCell>
        <mxCell id="fitZuFPc6MIC0ft5o5-M-14" value="ofrece" style="rhombus;whiteSpace=wrap;html=1;fillColor=#d5e8d4;strokeColor=#82b366;" vertex="1" parent="WIyWlLk6GJQsqaUBKTNV-1">
          <mxGeometry x="230" y="160" width="80" height="80" as="geometry" />
        </mxCell>
        <mxCell id="fitZuFPc6MIC0ft5o5-M-15" value="" style="endArrow=none;html=1;exitX=1;exitY=0.5;exitDx=0;exitDy=0;entryX=0;entryY=0.5;entryDx=0;entryDy=0;strokeWidth=2;strokeColor=#003C78;" edge="1" parent="WIyWlLk6GJQsqaUBKTNV-1" source="fitZuFPc6MIC0ft5o5-M-4" target="fitZuFPc6MIC0ft5o5-M-14">
          <mxGeometry width="50" height="50" relative="1" as="geometry">
            <mxPoint x="510" y="380" as="sourcePoint" />
            <mxPoint x="560" y="330" as="targetPoint" />
          </mxGeometry>
        </mxCell>
        <mxCell id="fitZuFPc6MIC0ft5o5-M-16" value="" style="endArrow=none;html=1;strokeColor=#003C78;strokeWidth=2;exitX=0.5;exitY=1;exitDx=0;exitDy=0;" edge="1" parent="WIyWlLk6GJQsqaUBKTNV-1" source="fitZuFPc6MIC0ft5o5-M-10" target="fitZuFPc6MIC0ft5o5-M-3">
          <mxGeometry width="50" height="50" relative="1" as="geometry">
            <mxPoint x="390" y="380" as="sourcePoint" />
            <mxPoint x="440" y="330" as="targetPoint" />
          </mxGeometry>
        </mxCell>
        <mxCell id="fitZuFPc6MIC0ft5o5-M-17" value="" style="endArrow=none;html=1;strokeColor=#003C78;strokeWidth=2;entryX=0.5;entryY=1;entryDx=0;entryDy=0;exitX=0.5;exitY=0;exitDx=0;exitDy=0;" edge="1" parent="WIyWlLk6GJQsqaUBKTNV-1" source="fitZuFPc6MIC0ft5o5-M-10" target="fitZuFPc6MIC0ft5o5-M-6">
          <mxGeometry width="50" height="50" relative="1" as="geometry">
            <mxPoint x="390" y="380" as="sourcePoint" />
            <mxPoint x="440" y="330" as="targetPoint" />
          </mxGeometry>
        </mxCell>
        <mxCell id="fitZuFPc6MIC0ft5o5-M-18" value="" style="endArrow=none;html=1;strokeColor=#003C78;strokeWidth=2;entryX=1;entryY=0.5;entryDx=0;entryDy=0;exitX=0;exitY=0.5;exitDx=0;exitDy=0;" edge="1" parent="WIyWlLk6GJQsqaUBKTNV-1" source="fitZuFPc6MIC0ft5o5-M-12" target="fitZuFPc6MIC0ft5o5-M-6">
          <mxGeometry width="50" height="50" relative="1" as="geometry">
            <mxPoint x="390" y="380" as="sourcePoint" />
            <mxPoint x="440" y="330" as="targetPoint" />
            <Array as="points">
              <mxPoint x="540" y="230" />
              <mxPoint x="540" y="200" />
            </Array>
          </mxGeometry>
        </mxCell>
        <mxCell id="fitZuFPc6MIC0ft5o5-M-19" value="" style="endArrow=none;html=1;strokeColor=#003C78;strokeWidth=2;exitX=1;exitY=0.5;exitDx=0;exitDy=0;entryX=0;entryY=0.5;entryDx=0;entryDy=0;" edge="1" parent="WIyWlLk6GJQsqaUBKTNV-1" source="fitZuFPc6MIC0ft5o5-M-14" target="fitZuFPc6MIC0ft5o5-M-6">
          <mxGeometry width="50" height="50" relative="1" as="geometry">
            <mxPoint x="390" y="380" as="sourcePoint" />
            <mxPoint x="440" y="330" as="targetPoint" />
          </mxGeometry>
        </mxCell>
        <mxCell id="fitZuFPc6MIC0ft5o5-M-20" value="" style="endArrow=none;html=1;strokeColor=#003C78;strokeWidth=2;exitX=1;exitY=0.5;exitDx=0;exitDy=0;entryX=0;entryY=0.5;entryDx=0;entryDy=0;" edge="1" parent="WIyWlLk6GJQsqaUBKTNV-1" source="fitZuFPc6MIC0ft5o5-M-11" target="fitZuFPc6MIC0ft5o5-M-1">
          <mxGeometry width="50" height="50" relative="1" as="geometry">
            <mxPoint x="390" y="380" as="sourcePoint" />
            <mxPoint x="440" y="330" as="targetPoint" />
          </mxGeometry>
        </mxCell>
        <mxCell id="fitZuFPc6MIC0ft5o5-M-21" value="" style="endArrow=none;html=1;strokeColor=#003C78;strokeWidth=2;exitX=1;exitY=0.5;exitDx=0;exitDy=0;entryX=0;entryY=0.5;entryDx=0;entryDy=0;" edge="1" parent="WIyWlLk6GJQsqaUBKTNV-1" source="fitZuFPc6MIC0ft5o5-M-3" target="fitZuFPc6MIC0ft5o5-M-11">
          <mxGeometry width="50" height="50" relative="1" as="geometry">
            <mxPoint x="390" y="380" as="sourcePoint" />
            <mxPoint x="440" y="330" as="targetPoint" />
          </mxGeometry>
        </mxCell>
        <mxCell id="fitZuFPc6MIC0ft5o5-M-22" value="" style="endArrow=none;html=1;strokeColor=#003C78;strokeWidth=2;exitX=0.575;exitY=0.004;exitDx=0;exitDy=0;exitPerimeter=0;entryX=0.5;entryY=1;entryDx=0;entryDy=0;" edge="1" parent="WIyWlLk6GJQsqaUBKTNV-1" source="fitZuFPc6MIC0ft5o5-M-1" target="fitZuFPc6MIC0ft5o5-M-13">
          <mxGeometry width="50" height="50" relative="1" as="geometry">
            <mxPoint x="390" y="380" as="sourcePoint" />
            <mxPoint x="440" y="330" as="targetPoint" />
            <Array as="points">
              <mxPoint x="700" y="500" />
            </Array>
          </mxGeometry>
        </mxCell>
        <mxCell id="fitZuFPc6MIC0ft5o5-M-24" value="" style="endArrow=none;html=1;strokeColor=#003C78;strokeWidth=2;exitX=0.5;exitY=0;exitDx=0;exitDy=0;entryX=0.5;entryY=1;entryDx=0;entryDy=0;" edge="1" parent="WIyWlLk6GJQsqaUBKTNV-1" source="fitZuFPc6MIC0ft5o5-M-13" target="fitZuFPc6MIC0ft5o5-M-12">
          <mxGeometry width="50" height="50" relative="1" as="geometry">
            <mxPoint x="390" y="380" as="sourcePoint" />
            <mxPoint x="440" y="330" as="targetPoint" />
          </mxGeometry>
        </mxCell>
        <mxCell id="fitZuFPc6MIC0ft5o5-M-25" value="Id_Vendedora" style="ellipse;whiteSpace=wrap;html=1;strokeColor=#82b366;fillColor=#E5FAE4;" vertex="1" parent="WIyWlLk6GJQsqaUBKTNV-1">
          <mxGeometry x="10" y="110" width="90" height="50" as="geometry" />
        </mxCell>
        <mxCell id="fitZuFPc6MIC0ft5o5-M-26" value="Usuario instagram" style="ellipse;whiteSpace=wrap;html=1;strokeColor=#82b366;fillColor=#E5FAE4;" vertex="1" parent="WIyWlLk6GJQsqaUBKTNV-1">
          <mxGeometry x="130" y="90" width="90" height="50" as="geometry" />
        </mxCell>
        <mxCell id="fitZuFPc6MIC0ft5o5-M-27" value="Nombre" style="ellipse;whiteSpace=wrap;html=1;strokeColor=#82b366;fillColor=#E5FAE4;" vertex="1" parent="WIyWlLk6GJQsqaUBKTNV-1">
          <mxGeometry x="10" y="260" width="90" height="50" as="geometry" />
        </mxCell>
        <mxCell id="fitZuFPc6MIC0ft5o5-M-28" value="Apellidos" style="ellipse;whiteSpace=wrap;html=1;strokeColor=#82b366;fillColor=#E5FAE4;" vertex="1" parent="WIyWlLk6GJQsqaUBKTNV-1">
          <mxGeometry x="120" y="270" width="90" height="50" as="geometry" />
        </mxCell>
        <mxCell id="fitZuFPc6MIC0ft5o5-M-29" value="Id_producto" style="ellipse;whiteSpace=wrap;html=1;strokeColor=#82b366;fillColor=#E5FAE4;" vertex="1" parent="WIyWlLk6GJQsqaUBKTNV-1">
          <mxGeometry x="284" y="110" width="90" height="50" as="geometry" />
        </mxCell>
        <mxCell id="fitZuFPc6MIC0ft5o5-M-30" value="DescripciÃ³n" style="ellipse;whiteSpace=wrap;html=1;strokeColor=#82b366;fillColor=#E5FAE4;" vertex="1" parent="WIyWlLk6GJQsqaUBKTNV-1">
          <mxGeometry x="354" y="70" width="90" height="50" as="geometry" />
        </mxCell>
        <mxCell id="fitZuFPc6MIC0ft5o5-M-31" value="Existencias" style="ellipse;whiteSpace=wrap;html=1;strokeColor=#82b366;fillColor=#E5FAE4;" vertex="1" parent="WIyWlLk6GJQsqaUBKTNV-1">
          <mxGeometry x="444" y="80" width="90" height="50" as="geometry" />
        </mxCell>
        <mxCell id="fitZuFPc6MIC0ft5o5-M-33" value="Precio" style="ellipse;whiteSpace=wrap;html=1;strokeColor=#82b366;fillColor=#E5FAE4;" vertex="1" parent="WIyWlLk6GJQsqaUBKTNV-1">
          <mxGeometry x="474" y="130" width="90" height="50" as="geometry" />
        </mxCell>
        <mxCell id="fitZuFPc6MIC0ft5o5-M-34" value="Id_pago" style="ellipse;whiteSpace=wrap;html=1;strokeColor=#82b366;fillColor=#E5FAE4;" vertex="1" parent="WIyWlLk6GJQsqaUBKTNV-1">
          <mxGeometry x="580" y="140" width="90" height="50" as="geometry" />
        </mxCell>
        <mxCell id="fitZuFPc6MIC0ft5o5-M-35" value="Tipo pago" style="ellipse;whiteSpace=wrap;html=1;strokeColor=#82b366;fillColor=#E5FAE4;" vertex="1" parent="WIyWlLk6GJQsqaUBKTNV-1">
          <mxGeometry x="630" y="90" width="90" height="50" as="geometry" />
        </mxCell>
        <mxCell id="fitZuFPc6MIC0ft5o5-M-36" value="User_instagram" style="ellipse;whiteSpace=wrap;html=1;strokeColor=#82b366;fillColor=#E5FAE4;" vertex="1" parent="WIyWlLk6GJQsqaUBKTNV-1">
          <mxGeometry x="720" y="90" width="90" height="50" as="geometry" />
        </mxCell>
        <mxCell id="fitZuFPc6MIC0ft5o5-M-37" value="Id_producto" style="ellipse;whiteSpace=wrap;html=1;strokeColor=#82b366;fillColor=#E5FAE4;" vertex="1" parent="WIyWlLk6GJQsqaUBKTNV-1">
          <mxGeometry x="737" y="150" width="90" height="50" as="geometry" />
        </mxCell>
        <mxCell id="fitZuFPc6MIC0ft5o5-M-39" value="Banco" style="ellipse;whiteSpace=wrap;html=1;strokeColor=#82b366;fillColor=#E5FAE4;" vertex="1" parent="WIyWlLk6GJQsqaUBKTNV-1">
          <mxGeometry x="730" y="270" width="90" height="50" as="geometry" />
        </mxCell>
        <mxCell id="fitZuFPc6MIC0ft5o5-M-40" value="User_instagram" style="ellipse;whiteSpace=wrap;html=1;strokeColor=#82b366;fillColor=#E5FAE4;" vertex="1" parent="WIyWlLk6GJQsqaUBKTNV-1">
          <mxGeometry x="720" y="460" width="90" height="50" as="geometry" />
        </mxCell>
        <mxCell id="fitZuFPc6MIC0ft5o5-M-41" value="Nombre" style="ellipse;whiteSpace=wrap;html=1;strokeColor=#82b366;fillColor=#E5FAE4;" vertex="1" parent="WIyWlLk6GJQsqaUBKTNV-1">
          <mxGeometry x="720" y="590" width="90" height="50" as="geometry" />
        </mxCell>
        <mxCell id="fitZuFPc6MIC0ft5o5-M-42" value="Id_nombre" style="ellipse;whiteSpace=wrap;html=1;strokeColor=#82b366;fillColor=#E5FAE4;" vertex="1" parent="WIyWlLk6GJQsqaUBKTNV-1">
          <mxGeometry x="640" y="620" width="90" height="50" as="geometry" />
        </mxCell>
        <mxCell id="fitZuFPc6MIC0ft5o5-M-43" value="Id_envio" style="ellipse;whiteSpace=wrap;html=1;strokeColor=#82b366;fillColor=#E5FAE4;" vertex="1" parent="WIyWlLk6GJQsqaUBKTNV-1">
          <mxGeometry x="550" y="590" width="90" height="50" as="geometry" />
        </mxCell>
        <mxCell id="fitZuFPc6MIC0ft5o5-M-44" value="Id_envio" style="ellipse;whiteSpace=wrap;html=1;strokeColor=#82b366;fillColor=#E5FAE4;" vertex="1" parent="WIyWlLk6GJQsqaUBKTNV-1">
          <mxGeometry x="420" y="600" width="90" height="50" as="geometry" />
        </mxCell>
        <mxCell id="fitZuFPc6MIC0ft5o5-M-45" value="CÃ³digo rastreo" style="ellipse;whiteSpace=wrap;html=1;strokeColor=#82b366;fillColor=#E5FAE4;" vertex="1" parent="WIyWlLk6GJQsqaUBKTNV-1">
          <mxGeometry x="320" y="590" width="90" height="50" as="geometry" />
        </mxCell>
        <mxCell id="fitZuFPc6MIC0ft5o5-M-46" value="PaqueterÃ­a" style="ellipse;whiteSpace=wrap;html=1;strokeColor=#82b366;fillColor=#E5FAE4;" vertex="1" parent="WIyWlLk6GJQsqaUBKTNV-1">
          <mxGeometry x="240" y="550" width="90" height="50" as="geometry" />
        </mxCell>
        <mxCell id="fitZuFPc6MIC0ft5o5-M-47" value="Fecha envio" style="ellipse;whiteSpace=wrap;html=1;strokeColor=#82b366;fillColor=#E5FAE4;" vertex="1" parent="WIyWlLk6GJQsqaUBKTNV-1">
          <mxGeometry x="240" y="490" width="90" height="50" as="geometry" />
        </mxCell>
        <mxCell id="fitZuFPc6MIC0ft5o5-M-48" value="Costo envio" style="ellipse;whiteSpace=wrap;html=1;strokeColor=#82b366;fillColor=#E5FAE4;" vertex="1" parent="WIyWlLk6GJQsqaUBKTNV-1">
          <mxGeometry x="290" y="440" width="90" height="50" as="geometry" />
        </mxCell>
        <mxCell id="fitZuFPc6MIC0ft5o5-M-49" value="Id_producto" style="ellipse;whiteSpace=wrap;html=1;strokeColor=#82b366;fillColor=#E5FAE4;" vertex="1" parent="WIyWlLk6GJQsqaUBKTNV-1">
          <mxGeometry x="444" y="460" width="90" height="50" as="geometry" />
        </mxCell>
        <mxCell id="fitZuFPc6MIC0ft5o5-M-50" value="Id_envio" style="ellipse;whiteSpace=wrap;html=1;strokeColor=#82b366;fillColor=#E5FAE4;" vertex="1" parent="WIyWlLk6GJQsqaUBKTNV-1">
          <mxGeometry x="474" y="240" width="90" height="50" as="geometry" />
        </mxCell>
        <mxCell id="fitZuFPc6MIC0ft5o5-M-52" value="" style="endArrow=none;html=1;strokeColor=#003C78;strokeWidth=2;entryX=0;entryY=1;entryDx=0;entryDy=0;exitX=1.005;exitY=0.13;exitDx=0;exitDy=0;exitPerimeter=0;" edge="1" parent="WIyWlLk6GJQsqaUBKTNV-1" source="fitZuFPc6MIC0ft5o5-M-6" target="fitZuFPc6MIC0ft5o5-M-33">
          <mxGeometry width="50" height="50" relative="1" as="geometry">
            <mxPoint x="424" y="320" as="sourcePoint" />
            <mxPoint x="424" y="240" as="targetPoint" />
          </mxGeometry>
        </mxCell>
        <mxCell id="fitZuFPc6MIC0ft5o5-M-53" value="" style="endArrow=none;html=1;strokeColor=#003C78;strokeWidth=2;entryX=0;entryY=1;entryDx=0;entryDy=0;exitX=0.75;exitY=0;exitDx=0;exitDy=0;" edge="1" parent="WIyWlLk6GJQsqaUBKTNV-1" source="fitZuFPc6MIC0ft5o5-M-6" target="fitZuFPc6MIC0ft5o5-M-31">
          <mxGeometry width="50" height="50" relative="1" as="geometry">
            <mxPoint x="434" y="330" as="sourcePoint" />
            <mxPoint x="434" y="250" as="targetPoint" />
          </mxGeometry>
        </mxCell>
        <mxCell id="fitZuFPc6MIC0ft5o5-M-54" value="" style="endArrow=none;html=1;strokeColor=#003C78;strokeWidth=2;entryX=0.5;entryY=1;entryDx=0;entryDy=0;exitX=0.5;exitY=0;exitDx=0;exitDy=0;" edge="1" parent="WIyWlLk6GJQsqaUBKTNV-1" source="fitZuFPc6MIC0ft5o5-M-6" target="fitZuFPc6MIC0ft5o5-M-30">
          <mxGeometry width="50" height="50" relative="1" as="geometry">
            <mxPoint x="410" y="160" as="sourcePoint" />
            <mxPoint x="444" y="260" as="targetPoint" />
          </mxGeometry>
        </mxCell>
        <mxCell id="fitZuFPc6MIC0ft5o5-M-55" value="" style="endArrow=none;html=1;strokeColor=#003C78;strokeWidth=2;entryX=0.25;entryY=0;entryDx=0;entryDy=0;exitX=0.5;exitY=1;exitDx=0;exitDy=0;" edge="1" parent="WIyWlLk6GJQsqaUBKTNV-1" source="fitZuFPc6MIC0ft5o5-M-29" target="fitZuFPc6MIC0ft5o5-M-6">
          <mxGeometry width="50" height="50" relative="1" as="geometry">
            <mxPoint x="454" y="350" as="sourcePoint" />
            <mxPoint x="454" y="270" as="targetPoint" />
          </mxGeometry>
        </mxCell>
        <mxCell id="fitZuFPc6MIC0ft5o5-M-56" value="" style="endArrow=none;html=1;strokeColor=#003C78;strokeWidth=2;exitX=0.5;exitY=1;exitDx=0;exitDy=0;" edge="1" parent="WIyWlLk6GJQsqaUBKTNV-1" source="fitZuFPc6MIC0ft5o5-M-26" target="fitZuFPc6MIC0ft5o5-M-4">
          <mxGeometry width="50" height="50" relative="1" as="geometry">
            <mxPoint x="464" y="360" as="sourcePoint" />
            <mxPoint x="464" y="280" as="targetPoint" />
          </mxGeometry>
        </mxCell>
        <mxCell id="fitZuFPc6MIC0ft5o5-M-57" value="" style="endArrow=none;html=1;strokeColor=#003C78;strokeWidth=2;exitX=0.5;exitY=1;exitDx=0;exitDy=0;" edge="1" parent="WIyWlLk6GJQsqaUBKTNV-1" source="fitZuFPc6MIC0ft5o5-M-25">
          <mxGeometry width="50" height="50" relative="1" as="geometry">
            <mxPoint x="474" y="370" as="sourcePoint" />
            <mxPoint x="90" y="170" as="targetPoint" />
          </mxGeometry>
        </mxCell>
        <mxCell id="fitZuFPc6MIC0ft5o5-M-58" value="" style="endArrow=none;html=1;strokeColor=#003C78;strokeWidth=2;entryX=0.75;entryY=1;entryDx=0;entryDy=0;exitX=0.5;exitY=0;exitDx=0;exitDy=0;" edge="1" parent="WIyWlLk6GJQsqaUBKTNV-1" source="fitZuFPc6MIC0ft5o5-M-28" target="fitZuFPc6MIC0ft5o5-M-4">
          <mxGeometry width="50" height="50" relative="1" as="geometry">
            <mxPoint x="484" y="380" as="sourcePoint" />
            <mxPoint x="484" y="300" as="targetPoint" />
          </mxGeometry>
        </mxCell>
        <mxCell id="fitZuFPc6MIC0ft5o5-M-59" value="" style="endArrow=none;html=1;strokeColor=#003C78;strokeWidth=2;entryX=0.25;entryY=1;entryDx=0;entryDy=0;exitX=0.5;exitY=0;exitDx=0;exitDy=0;" edge="1" parent="WIyWlLk6GJQsqaUBKTNV-1" source="fitZuFPc6MIC0ft5o5-M-27" target="fitZuFPc6MIC0ft5o5-M-4">
          <mxGeometry width="50" height="50" relative="1" as="geometry">
            <mxPoint x="494" y="390" as="sourcePoint" />
            <mxPoint x="494" y="310" as="targetPoint" />
          </mxGeometry>
        </mxCell>
        <mxCell id="fitZuFPc6MIC0ft5o5-M-60" value="" style="endArrow=none;html=1;strokeColor=#003C78;strokeWidth=2;entryX=0.5;entryY=1;entryDx=0;entryDy=0;exitX=1;exitY=0.5;exitDx=0;exitDy=0;" edge="1" parent="WIyWlLk6GJQsqaUBKTNV-1" source="fitZuFPc6MIC0ft5o5-M-12" target="fitZuFPc6MIC0ft5o5-M-37">
          <mxGeometry width="50" height="50" relative="1" as="geometry">
            <mxPoint x="390" y="440" as="sourcePoint" />
            <mxPoint x="440" y="390" as="targetPoint" />
          </mxGeometry>
        </mxCell>
        <mxCell id="fitZuFPc6MIC0ft5o5-M-61" value="" style="endArrow=none;html=1;strokeColor=#003C78;strokeWidth=2;" edge="1" parent="WIyWlLk6GJQsqaUBKTNV-1" source="fitZuFPc6MIC0ft5o5-M-12" target="fitZuFPc6MIC0ft5o5-M-36">
          <mxGeometry width="50" height="50" relative="1" as="geometry">
            <mxPoint x="390" y="440" as="sourcePoint" />
            <mxPoint x="440" y="390" as="targetPoint" />
          </mxGeometry>
        </mxCell>
        <mxCell id="fitZuFPc6MIC0ft5o5-M-62" value="" style="endArrow=none;html=1;strokeColor=#003C78;strokeWidth=2;entryX=0.5;entryY=1;entryDx=0;entryDy=0;exitX=0.5;exitY=0;exitDx=0;exitDy=0;" edge="1" parent="WIyWlLk6GJQsqaUBKTNV-1" source="fitZuFPc6MIC0ft5o5-M-12" target="fitZuFPc6MIC0ft5o5-M-35">
          <mxGeometry width="50" height="50" relative="1" as="geometry">
            <mxPoint x="390" y="440" as="sourcePoint" />
            <mxPoint x="440" y="390" as="targetPoint" />
          </mxGeometry>
        </mxCell>
        <mxCell id="fitZuFPc6MIC0ft5o5-M-63" value="" style="endArrow=none;html=1;strokeColor=#003C78;strokeWidth=2;entryX=1;entryY=1;entryDx=0;entryDy=0;exitX=0.347;exitY=-0.015;exitDx=0;exitDy=0;exitPerimeter=0;" edge="1" parent="WIyWlLk6GJQsqaUBKTNV-1" source="fitZuFPc6MIC0ft5o5-M-12" target="fitZuFPc6MIC0ft5o5-M-34">
          <mxGeometry width="50" height="50" relative="1" as="geometry">
            <mxPoint x="390" y="440" as="sourcePoint" />
            <mxPoint x="440" y="390" as="targetPoint" />
          </mxGeometry>
        </mxCell>
        <mxCell id="fitZuFPc6MIC0ft5o5-M-64" value="" style="endArrow=none;html=1;strokeColor=#003C78;strokeWidth=2;exitX=0;exitY=0;exitDx=0;exitDy=0;entryX=0.75;entryY=1;entryDx=0;entryDy=0;" edge="1" parent="WIyWlLk6GJQsqaUBKTNV-1" source="fitZuFPc6MIC0ft5o5-M-50" target="fitZuFPc6MIC0ft5o5-M-6">
          <mxGeometry width="50" height="50" relative="1" as="geometry">
            <mxPoint x="390" y="440" as="sourcePoint" />
            <mxPoint x="440" y="390" as="targetPoint" />
          </mxGeometry>
        </mxCell>
        <mxCell id="fitZuFPc6MIC0ft5o5-M-65" value="" style="endArrow=none;html=1;strokeColor=#003C78;strokeWidth=2;entryX=0;entryY=0.75;entryDx=0;entryDy=0;exitX=1;exitY=0.5;exitDx=0;exitDy=0;" edge="1" parent="WIyWlLk6GJQsqaUBKTNV-1" source="fitZuFPc6MIC0ft5o5-M-46" target="fitZuFPc6MIC0ft5o5-M-3">
          <mxGeometry width="50" height="50" relative="1" as="geometry">
            <mxPoint x="342" y="575" as="sourcePoint" />
            <mxPoint x="440" y="390" as="targetPoint" />
          </mxGeometry>
        </mxCell>
        <mxCell id="fitZuFPc6MIC0ft5o5-M-66" value="" style="endArrow=none;html=1;strokeColor=#003C78;strokeWidth=2;entryX=0.308;entryY=1.037;entryDx=0;entryDy=0;entryPerimeter=0;" edge="1" parent="WIyWlLk6GJQsqaUBKTNV-1" source="fitZuFPc6MIC0ft5o5-M-45" target="fitZuFPc6MIC0ft5o5-M-3">
          <mxGeometry width="50" height="50" relative="1" as="geometry">
            <mxPoint x="390" y="440" as="sourcePoint" />
            <mxPoint x="440" y="390" as="targetPoint" />
          </mxGeometry>
        </mxCell>
        <mxCell id="fitZuFPc6MIC0ft5o5-M-67" value="" style="endArrow=none;html=1;strokeColor=#003C78;strokeWidth=2;entryX=0.827;entryY=0.993;entryDx=0;entryDy=0;entryPerimeter=0;exitX=0.5;exitY=0;exitDx=0;exitDy=0;" edge="1" parent="WIyWlLk6GJQsqaUBKTNV-1" source="fitZuFPc6MIC0ft5o5-M-44" target="fitZuFPc6MIC0ft5o5-M-3">
          <mxGeometry width="50" height="50" relative="1" as="geometry">
            <mxPoint x="390" y="440" as="sourcePoint" />
            <mxPoint x="440" y="390" as="targetPoint" />
          </mxGeometry>
        </mxCell>
        <mxCell id="fitZuFPc6MIC0ft5o5-M-68" value="" style="endArrow=none;html=1;strokeColor=#003C78;strokeWidth=2;entryX=0.75;entryY=0;entryDx=0;entryDy=0;" edge="1" parent="WIyWlLk6GJQsqaUBKTNV-1" source="fitZuFPc6MIC0ft5o5-M-49" target="fitZuFPc6MIC0ft5o5-M-3">
          <mxGeometry width="50" height="50" relative="1" as="geometry">
            <mxPoint x="390" y="440" as="sourcePoint" />
            <mxPoint x="440" y="390" as="targetPoint" />
          </mxGeometry>
        </mxCell>
        <mxCell id="fitZuFPc6MIC0ft5o5-M-69" value="" style="endArrow=none;html=1;strokeColor=#003C78;strokeWidth=2;exitX=0.25;exitY=1;exitDx=0;exitDy=0;" edge="1" parent="WIyWlLk6GJQsqaUBKTNV-1" source="fitZuFPc6MIC0ft5o5-M-1" target="fitZuFPc6MIC0ft5o5-M-43">
          <mxGeometry width="50" height="50" relative="1" as="geometry">
            <mxPoint x="390" y="440" as="sourcePoint" />
            <mxPoint x="440" y="390" as="targetPoint" />
          </mxGeometry>
        </mxCell>
        <mxCell id="fitZuFPc6MIC0ft5o5-M-70" value="" style="endArrow=none;html=1;strokeColor=#003C78;strokeWidth=2;exitX=0.5;exitY=0;exitDx=0;exitDy=0;" edge="1" parent="WIyWlLk6GJQsqaUBKTNV-1" source="fitZuFPc6MIC0ft5o5-M-42">
          <mxGeometry width="50" height="50" relative="1" as="geometry">
            <mxPoint x="390" y="440" as="sourcePoint" />
            <mxPoint x="700" y="580" as="targetPoint" />
          </mxGeometry>
        </mxCell>
        <mxCell id="fitZuFPc6MIC0ft5o5-M-71" value="" style="endArrow=none;html=1;strokeColor=#003C78;strokeWidth=2;exitX=1;exitY=0.5;exitDx=0;exitDy=0;entryX=0.5;entryY=0;entryDx=0;entryDy=0;" edge="1" parent="WIyWlLk6GJQsqaUBKTNV-1" source="fitZuFPc6MIC0ft5o5-M-1" target="fitZuFPc6MIC0ft5o5-M-41">
          <mxGeometry width="50" height="50" relative="1" as="geometry">
            <mxPoint x="390" y="440" as="sourcePoint" />
            <mxPoint x="440" y="390" as="targetPoint" />
          </mxGeometry>
        </mxCell>
        <mxCell id="fitZuFPc6MIC0ft5o5-M-72" value="" style="endArrow=none;html=1;strokeColor=#003C78;strokeWidth=2;entryX=0.86;entryY=0.03;entryDx=0;entryDy=0;entryPerimeter=0;exitX=0.5;exitY=1;exitDx=0;exitDy=0;" edge="1" parent="WIyWlLk6GJQsqaUBKTNV-1" source="fitZuFPc6MIC0ft5o5-M-40" target="fitZuFPc6MIC0ft5o5-M-1">
          <mxGeometry width="50" height="50" relative="1" as="geometry">
            <mxPoint x="390" y="440" as="sourcePoint" />
            <mxPoint x="440" y="390" as="targetPoint" />
          </mxGeometry>
        </mxCell>
        <mxCell id="fitZuFPc6MIC0ft5o5-M-73" value="" style="endArrow=none;html=1;strokeColor=#003C78;strokeWidth=2;entryX=0.75;entryY=1;entryDx=0;entryDy=0;" edge="1" parent="WIyWlLk6GJQsqaUBKTNV-1" source="fitZuFPc6MIC0ft5o5-M-39" target="fitZuFPc6MIC0ft5o5-M-12">
          <mxGeometry width="50" height="50" relative="1" as="geometry">
            <mxPoint x="390" y="440" as="sourcePoint" />
            <mxPoint x="440" y="390" as="targetPoint" />
          </mxGeometry>
        </mxCell>
        <mxCell id="fitZuFPc6MIC0ft5o5-M-75" value="" style="endArrow=none;html=1;strokeColor=#003C78;strokeWidth=2;entryX=0.25;entryY=0;entryDx=0;entryDy=0;exitX=1;exitY=1;exitDx=0;exitDy=0;" edge="1" parent="WIyWlLk6GJQsqaUBKTNV-1" source="fitZuFPc6MIC0ft5o5-M-48" target="fitZuFPc6MIC0ft5o5-M-3">
          <mxGeometry width="50" height="50" relative="1" as="geometry">
            <mxPoint x="390" y="440" as="sourcePoint" />
            <mxPoint x="440" y="390" as="targetPoint" />
          </mxGeometry>
        </mxCell>
        <mxCell id="fitZuFPc6MIC0ft5o5-M-76" value="" style="endArrow=none;html=1;strokeColor=#003C78;strokeWidth=2;exitX=0;exitY=0.25;exitDx=0;exitDy=0;entryX=1;entryY=0.5;entryDx=0;entryDy=0;" edge="1" parent="WIyWlLk6GJQsqaUBKTNV-1" source="fitZuFPc6MIC0ft5o5-M-3" target="fitZuFPc6MIC0ft5o5-M-47">
          <mxGeometry width="50" height="50" relative="1" as="geometry">
            <mxPoint x="390" y="440" as="sourcePoint" />
            <mxPoint x="440" y="390" as="targetPoint" />
          </mxGeometry>
        </mxCell>
      </root>
    </mxGraphModel>
  </diagram>
</mxfile>
